<?xml version="1.0" encoding="utf-8"?>
<!-- Generator: Adobe Illustrator 16.0.0, SVG Export Plug-In . SVG Version: 6.00 Build 0)  -->
<!DOCTYPE svg PUBLIC "-//W3C//DTD SVG 1.1//EN" "http://www.w3.org/Graphics/SVG/1.1/DTD/svg11.dtd">
<svg version="1.1" id="Layer_1" xmlns="http://www.w3.org/2000/svg" xmlns:xlink="http://www.w3.org/1999/xlink" x="0px" y="0px"
	 width="780px" height="500px" viewBox="0 0 780 500" enable-background="new 0 0 780 500" xml:space="preserve">
<path fill="#CCD0D6" d="M40,0h700c22.092,0,40,17.909,40,40v420c0,22.092-17.908,40-40,40H40c-22.091,0-40-17.908-40-40V40
	C0,17.909,17.909,0,40,0z"/>
<g>
	<g id="Icon-Credit-Card" transform="translate(128.000000, 532.000000)">
		<path id="Fill-7_1_" fill="#134563" d="M582.7-32H-58.703C-97.381-32-128-57.606-128-89.952v-384.097
			C-128-506.395-97.381-532-58.703-532H582.7c38.68,0,69.3,25.605,69.3,57.951v384.097C652-57.606,621.38-32,582.7-32L582.7-32z
			 M-58.703-492.917c-12.892,0-22.561,8.086-22.561,18.868v384.097c0,10.781,9.668,18.869,22.561,18.869H582.7
			c12.893,0,22.563-8.088,22.563-18.869v-384.097c0-10.782-9.67-18.868-22.563-18.868H-58.703L-58.703-492.917z"/>
		<polygon id="Fill-8_1_" fill="#134563" points="-105.437,-453.833 629.438,-453.833 629.438,-339.278 -105.437,-339.278 		"/>
		<polygon id="Fill-9_1_" fill="#134563" points="-36.141,-262.458 -13.578,-262.458 -13.578,-223.377 -36.141,-223.377 		"/>
		<polygon id="Fill-10_1_" fill="#134563" points="8.983,-262.458 33.159,-262.458 33.159,-223.377 8.983,-223.377 		"/>
		<polygon id="Fill-11_1_" fill="#134563" points="55.719,-262.458 78.28,-262.458 78.28,-223.377 55.719,-223.377 		"/>
		<polygon id="Fill-12_1_" fill="#134563" points="125.015,-262.458 147.578,-262.458 147.578,-223.377 125.015,-223.377 		"/>
		<polygon id="Fill-13_1_" fill="#134563" points="170.141,-262.458 192.702,-262.458 192.702,-223.377 170.141,-223.377 		"/>
		<polygon id="Fill-14_1_" fill="#134563" points="216.875,-262.458 239.438,-262.458 239.438,-223.377 216.875,-223.377 		"/>
		<polygon id="Fill-15_1_" fill="#134563" points="284.562,-262.458 307.123,-262.458 307.123,-223.377 284.562,-223.377 		"/>
		<polygon id="Fill-16_1_" fill="#134563" points="331.297,-262.458 353.858,-262.458 353.858,-223.377 331.297,-223.377 		"/>
		<polygon id="Fill-17_1_" fill="#134563" points="376.42,-262.458 398.981,-262.458 398.981,-223.377 376.42,-223.377 		"/>
		<polygon id="Fill-18_1_" fill="#134563" points="445.718,-262.458 468.279,-262.458 468.279,-223.377 445.718,-223.377 		"/>
		<polygon id="Fill-19_1_" fill="#134563" points="490.842,-262.458 515.016,-262.458 515.016,-223.377 490.842,-223.377 		"/>
		<polygon id="Fill-20_1_" fill="#134563" points="537.576,-262.458 560.14,-262.458 560.14,-223.377 537.576,-223.377 		"/>
	</g>
</g>
</svg>
