<?xml version="1.0" encoding="utf-8"?>
<!-- Generator: Adobe Illustrator 22.0.1, SVG Export Plug-In . SVG Version: 6.00 Build 0)  -->
<svg version="1.1" id="Layer_1" xmlns="http://www.w3.org/2000/svg" xmlns:xlink="http://www.w3.org/1999/xlink" x="0px" y="0px"
	 viewBox="0 0 20 20" style="enable-background:new 0 0 20 20;" xml:space="preserve">
<style type="text/css">
	.st0{fill:none;stroke:#141414;stroke-width:1.5;stroke-linecap:round;stroke-linejoin:round;}
</style>
<path class="st0" d="M1.3,12.3C1.1,11.5,1,10.8,1,10c0-1.6,0.4-3.1,1.2-4.4 M18.7,12.3C16,13.7,13,14.5,10,14.5
	c-3.2,0-6.1-0.8-8.7-2.2 M17.8,5.6C18.6,6.9,19,8.5,19,10c0,0.8-0.1,1.5-0.3,2.3 M17.8,5.6c-2.2,1.9-5,2.9-7.8,2.9
	c-3,0-5.7-1.1-7.8-2.9 M10,1C6.7,1,3.8,2.8,2.2,5.6 M10,1c3.3,0,6.2,1.8,7.8,4.6 M10,19c-2.5,0-4.5-4-4.5-9c0-5,2-9,4.5-9 M10,19
	c2.5,0,4.5-4,4.5-9c0-5-2-9-4.5-9 M10,19c-4.1,0-7.7-2.8-8.7-6.7 M10,19c4.1,0,7.7-2.8,8.7-6.7"/>
</svg>
